<svg xmlns="http://www.w3.org/2000/svg" width="512" height="69" viewBox="0 0 512 69">
    <defs>
        <linearGradient id="a" x1="98.105%" x2="-2.37%" y1="50%" y2="50%">
            <stop offset="0%" stop-color="#00A0E1"/>
            <stop offset="1%" stop-color="#009EDF"/>
            <stop offset="16%" stop-color="#0381C6"/>
            <stop offset="33%" stop-color="#0064AE"/>
            <stop offset="50.08%" stop-color="#004E9B"/>
            <stop offset="71%" stop-color="#004694"/>
            <stop offset="100%" stop-color="#004492"/>
        </linearGradient>
    </defs>
    <g fill="none" fill-rule="nonzero">
        <path fill="#FFF" d="M99.792 25.575c0-8.024-4.613-12.085-14.241-12.085H71.158v34.45h8.977v-9.227h5.717c9.026-.05 13.94-4.513 13.94-13.138zm-13.99 4.814h-5.667v-8.575H85.8c3.21 0 4.865 1.454 4.865 4.313 0 3.41-2.708 4.262-4.865 4.262zm203.145 6.82c0 7.321-5.115 11.534-14.393 11.534a28.933 28.933 0 0 1-12.135-2.508l1.755-8.224s5.516 2.056 10.28 2.056c4.212 0 5.065-1.003 5.065-2.156 0-2.156-3.861-2.658-7.973-3.962-4.313-1.404-9.328-4.212-9.328-10.63 0-6.72 4.513-10.682 14.242-10.682 4.012.1 7.973.802 11.784 2.106l-1.654 8.074c-3.26-1.254-6.72-1.856-10.23-1.906-3.16 0-4.814.702-4.814 2.207 0 1.604 2.607 2.056 6.619 3.26 4.764 1.554 10.782 3.96 10.782 10.831zm-40.469-23.72h8.976V47.94h-8.976l-13.94-19.507V47.94h-8.977V13.49h8.625l14.242 19.958.05-19.958zm-45.634-.852c-11.082 0-18.554 7.271-18.554 18.053 0 10.781 7.472 18.053 18.554 18.053 11.083 0 18.555-7.221 18.555-18.053s-7.422-18.053-18.555-18.053zm0 27.38c-5.315 0-8.926-3.76-8.926-9.327 0-5.566 3.56-9.327 8.926-9.327s8.926 3.76 8.926 9.327c0 5.566-3.56 9.327-8.926 9.327zM109.822 13.44L95.48 47.89h9.979l2.206-5.566h14.693l2.207 5.566h9.929l-14.292-34.4-10.38-.05zm.902 21.263l4.313-10.832 4.313 10.832h-8.626zm60.427-21.212h8.977v34.45h-8.977V13.49zm-5.014 12.135c0-7.723-4.764-12.186-12.938-12.186h-16.95V47.89h9.027v-9.578h4.563l6.369 9.578h10.781l-7.923-11.032c5.115-1.504 7.02-6.92 7.07-11.233zm-13.84 4.513h-7.021v-8.374h7.12c1.705 0 4.614.602 4.614 3.961-.05 1.906-.953 4.413-4.714 4.413z"/>
        <path fill="#69D73C" d="M512 47.89H295.716v-34.4H512z"/>
        <path fill="#00265A" d="M402.68 43.728c-14.743 0-18.856-5.165-17.25-12.637l.25-1.304c1.554-7.271 5.616-12.135 20.059-12.135 13.389 0 19.657 3.911 17.702 12.637l-.251 1.253c-.903 4.163-2.658 6.97-5.466 8.876-3.26 2.257-8.174 3.31-15.044 3.31zm2.557-19.407c-6.97 0-9.528 1.354-10.53 5.617l-.251 1.304c-.301 1.454-.15 2.607.501 3.46 1.254 1.705 3.46 2.306 8.274 2.306 7.221 0 10.18-1.504 10.983-5.566l.25-1.053c.903-4.212-1.554-6.068-9.227-6.068zm-86.854 19.407c-6.419 0-12.687-.451-16.198-1.203l1.254-6.018h3.51c3.36 1.003 8.776 1.504 12.437 1.504 5.967 0 8.023-.3 8.424-2.106.251-1.203-.4-1.755-2.357-1.805l-9.929-.502c-9.427-.4-11.182-3.209-10.18-7.973 1.304-5.967 5.818-7.923 18.605-7.923 4.814-.05 9.578.35 14.292 1.203l-1.304 5.968h-3.51a39.242 39.242 0 0 0-10.531-1.454c-6.77 0-8.324.501-8.625 1.855-.2 1.153.4 1.705 3.009 1.805l8.976.502c9.327.401 11.584 3.009 10.53 7.923-1.504 6.97-7.17 8.224-18.403 8.224zm161.573-.501l3.912-18.204h-12.036l1.505-6.92h33.197l-1.504 6.92h-12.286l-3.912 18.204h-8.876zm-23.519 0l-10.63-6.42-6.871-.05-1.404 6.52h-8.826l5.416-25.124h20.56c9.93 0 13.49 3.11 12.286 8.976l-.1.652c-1.154 5.366-7.02 6.62-10.13 7.071l7.121 3.962-1.003 4.413h-6.419zM440.34 30.188h11.032c3.01 0 5.918-.15 6.369-2.407l.05-.3c.452-2.107-1.103-2.859-5.516-2.859h-10.782l-1.153 5.566zm-97.786 13.039l5.415-25.124h20.41c9.277 0 13.089 3.31 11.735 9.93l-.15.801c-1.204 5.818-6.32 8.776-15.245 8.776h-12.186l-1.204 5.667-8.775-.05zm11.383-12.136h11.985c3.11 0 5.115-.501 5.516-2.908l.05-.251c.402-2.257-.601-3.26-4.764-3.26h-11.333l-1.454 6.42z"/>
        <path fill="#FFF" d="M24.622 58.521L2.91 36.808c-3.36-3.36-3.36-8.826 0-12.186L24.622 2.91c3.36-3.36 8.826-3.36 12.186 0L58.52 24.622c3.36 3.36 3.36 8.826 0 12.186L36.808 58.52a8.536 8.536 0 0 1-12.186 0z"/>
        <g>
            <path fill="url(#a)" d="M1.956 23.72L23.719 2.005c2.508-2.507 6.52-2.507 8.977 0L54.46 23.77c2.507 2.507 2.507 6.519 0 8.976L32.696 54.46c-2.508 2.507-6.52 2.507-8.977 0L1.956 32.696c-2.508-2.457-2.508-6.47 0-8.977z" transform="translate(2.507 2.507)"/>
            <path fill="#FFF" d="M48.392 24.17c-.1-.35-.05-6.268-4.213-6.82-2.758-.35-5.215 1.455-7.12 3.862l8.424 4.062-4.012 8.425c3.01.652 6.169.501 8.074-1.555 2.808-3.16-1.003-7.622-1.153-7.973zm-16.448 8.225c-1.705.802-7.372 11.734-2.608 16.248 3.11 2.908 7.572-.903 7.923-1.003.351-.1 6.269.05 6.87-4.163.903-6.469-10.33-11.533-12.185-11.082zm-1.354-3.912c1.705-.802 7.371-11.734 2.607-16.197-3.059-2.909-7.572.903-7.973 1.003-.351.1-6.268-.05-6.87 4.162-.853 6.47 10.38 11.484 12.236 11.032zm-1.354 2.608c-.803-1.705-11.785-7.372-16.198-2.608-2.908 3.11.903 7.573 1.003 7.924.1.35-.05 6.268 4.162 6.87 6.42.902 11.484-10.33 11.033-12.186zm-9.629 16.9l2.257 2.256c1.504-1.554 3.36-4.212 4.112-8.174-.15-.05-1.203-.2-1.354-.2-1.053 3.059-3.26 5.014-5.015 6.118z"/>
            <path fill="#E1001A" d="M32.7 29.702l3.708-7.732 7.732 3.708-3.707 7.732z"/>
            <path fill="#A70000" d="M36.035 22.929l.434-.905 7.732 3.708-.433.905z"/>
            <path fill="#A70000" d="M32.791 29.711l3.708-7.732.904.434-3.708 7.732z"/>
        </g>
        <path fill="#FFF" d="M80.837 56.816c.902.803 1.404 1.956 1.404 3.41 0 1.555-.451 2.759-1.404 3.611-.903.853-2.207 1.304-3.912 1.304h-2.357v3.66h-3.41V55.664h5.767c1.705-.05 3.01.351 3.912 1.153zm-2.457 5.015c.4-.35.551-.852.551-1.504s-.2-1.103-.551-1.455c-.402-.35-.903-.501-1.605-.501h-2.156v4.012h2.156c.702 0 1.254-.2 1.605-.552zm17.852-5.566c1.103.602 1.956 1.404 2.557 2.407a6.624 6.624 0 0 1 .953 3.46c0 1.304-.3 2.457-.953 3.51-.601 1.053-1.454 1.856-2.557 2.458a7.418 7.418 0 0 1-3.61.902c-1.355 0-2.558-.3-3.611-.902-1.103-.602-1.956-1.405-2.558-2.458-.601-1.053-.953-2.206-.953-3.51 0-1.254.301-2.407.953-3.46.602-1.003 1.455-1.856 2.558-2.407a7.418 7.418 0 0 1 3.61-.903c1.354.05 2.558.351 3.61.903zm-5.366 2.557c-.551.351-1.003.803-1.304 1.404-.3.602-.501 1.254-.501 1.956s.15 1.404.501 1.956c.351.602.753 1.053 1.304 1.404.552.351 1.154.501 1.805.501.652 0 1.254-.15 1.806-.501.551-.351.953-.802 1.304-1.404.3-.602.45-1.254.45-1.956s-.15-1.354-.45-1.956c-.301-.601-.753-1.053-1.304-1.404-.552-.35-1.154-.501-1.806-.501-.651 0-1.253.15-1.805.501zm12.988-3.21h3.41v13.14h-3.41v-13.14zm17.401 0h3.21v13.14h-3.01l-5.967-7.874v7.873h-3.21V55.613h3.01l5.967 7.923v-7.923zm7.071 0h11.283v2.81h-3.962v10.33h-3.41v-10.33h-3.911v-2.81zm30.99.803a6.055 6.055 0 0 1 2.458 2.307c.602 1.003.903 2.156.903 3.41s-.301 2.407-.903 3.41c-.602 1.003-1.454 1.755-2.507 2.307-1.104.551-2.307.802-3.711.802h-5.516V55.513h5.666c1.354.1 2.558.35 3.61.902zm-1.754 9.077c.501-.301.902-.752 1.203-1.354.301-.552.451-1.254.451-1.956 0-.752-.15-1.404-.45-2.006-.302-.551-.753-1.003-1.255-1.354-.551-.3-1.153-.501-1.855-.501h-2.206v7.572h2.306c.702.1 1.254-.1 1.806-.401zm9.277-9.88h10.38v2.759h-6.92v2.457h6.218v2.708h-6.268v2.457h7.12v2.758h-10.58V55.613h.05zm20.36 0h3.71l3.26 9.529 3.31-9.528h3.51l-5.115 13.138h-3.56l-5.116-13.138zm17.5 0h10.381v2.759h-6.97v2.457h6.268v2.708h-6.268v2.457h7.12v2.758h-10.58V55.613h.05zm24.071 0h3.21v13.14h-3.01l-5.967-7.874v7.873h-3.21V55.613h3.01l5.967 7.923v-7.923zm7.07 0h11.284v2.81h-3.962v10.33h-3.46v-10.33h-3.911v-2.81h.05zm15.095 0h10.33v2.759h-6.92v2.457h6.269v2.708h-6.269v2.457h7.121v2.758h-10.581V55.613h.05z"/>
    </g>
</svg>
